# xmcd CD database file
#
# Track frame offsets:
#	150
#	14682
#	32456
#	48338
#	61387
#	81872
#	105174
#	122869
#	140426
#	153114
#	169848
#	188571
#	199495
#	216519
#	237391
#	252238
#	270035
#	291511
#	317465
#	342979
#
# Disc length: 4765 seconds
#
# Revision: 0
# Processed by: cddbd v1.5.1PL0 Copyright (c) Steve Scherf et al.
# Submitted via: CDex 1.51
#
DISCID=1d129b14
DTITLE=Various Artist - Cool Jazz
DYEAR=2003
DGENRE=Jazz
TTITLE0=Louis Armstrong - We have all the time in the world
TTITLE1=Omar - There's nothing like this
TTITLE2=Heatwave - Always and forever
TTITLE3=Billie Holiday - That ole devil called love
TTITLE4=Courtney Pine - Children of the ghetto
TTITLE5=Urban Species - Spiritual love
TTITLE6=Incognito - Still a friend of mine
TTITLE7=Martin Taylor - Midnight at the oasis
TTITLE8=Ella Fitzgerald - Manhattan
TTITLE9=Young Disciples - Apparently nothing
TTITLE10=Freddie Hubbard - Backlash
TTITLE11=Mose Allison - Foolkiller
TTITLE12=Will Downing - A love supreme
TTITLE13=Earth Wind and Fire - Fantasy
TTITLE14=Grover Washington Jr - Soulful strut
TTITLE15=Frank McComb - Looking at you
TTITLE16=Peter White - Venice beach
TTITLE17=Jimmy Smith - On the sunny side of the street
TTITLE18=Chris Botti - Easter parade
TTITLE19=Thelonius Monk - Round midnight
EXTD=YEAR: 2003
EXTT0=
EXTT1=
EXTT2=
EXTT3=
EXTT4=
EXTT5=
EXTT6=
EXTT7=
EXTT8=
EXTT9=
EXTT10=
EXTT11=
EXTT12=
EXTT13=
EXTT14=
EXTT15=
EXTT16=
EXTT17=
EXTT18=
EXTT19=
PLAYORDER=
